<svg id="Layer_1" data-name="Layer 1" xmlns="http://www.w3.org/2000/svg" viewBox="0 0 58.44 58.44"><defs><style>.cls-1{fill:#0e363c;}.cls-2{fill:#38d8da;}.cls-3{fill:#1ec099;}.cls-4{fill:#45eac2;}</style></defs><path class="cls-1" d="M29.22,0A29.22,29.22,0,1,0,58.44,29.22,29.22,29.22,0,0,0,29.22,0Zm-6,38.73a3.92,3.92,0,0,1-3.92,3.91h-.38A3.91,3.91,0,0,1,15,38.73h0V17.5a3.92,3.92,0,0,1,3.91-3.92h.38a3.93,3.93,0,0,1,3.92,3.92Zm9.93,0a3.92,3.92,0,0,1-3.92,3.91h-.38A3.92,3.92,0,0,1,25,38.73V17.5a3.93,3.93,0,0,1,3.92-3.92h.38a3.93,3.93,0,0,1,3.92,3.92Zm11,3.62-.37.08a3.93,3.93,0,0,1-4.64-3L34.82,18.62a3.92,3.92,0,0,1,3-4.64l.37-.07a3.9,3.9,0,0,1,4.63,3l4.33,20.78A3.91,3.91,0,0,1,44.16,42.35Z" transform="translate(0 0)"/><path class="cls-2" d="M44.16,42.35l-.37.08a3.93,3.93,0,0,1-4.64-3L34.82,18.62a3.92,3.92,0,0,1,3-4.64l.37-.07a3.9,3.9,0,0,1,4.63,3l4.33,20.78A3.91,3.91,0,0,1,44.16,42.35Z" transform="translate(0 0)"/><path class="cls-3" d="M28.87,13.58h.38a3.93,3.93,0,0,1,3.92,3.92V38.73a3.92,3.92,0,0,1-3.92,3.91h-.38A3.92,3.92,0,0,1,25,38.73V17.5a3.93,3.93,0,0,1,3.92-3.92Z" transform="translate(0 0)"/><path class="cls-4" d="M18.94,13.58h.38a3.93,3.93,0,0,1,3.92,3.92V38.73a3.92,3.92,0,0,1-3.92,3.91h-.38A3.91,3.91,0,0,1,15,38.73V17.5a3.92,3.92,0,0,1,3.91-3.92Z" transform="translate(0 0)"/></svg>