<svg xmlns="http://www.w3.org/2000/svg" id="Layer_1" data-name="Layer 1" width="201.546" height="58.4367" viewBox="0 0 201.546 58.4367"><defs><style>.cls-1{fill:#0e363c;}.cls-2{fill:#38d8da;}.cls-3{fill:#1ec099;}.cls-4{fill:#45eac2;}</style></defs><title>system-logo</title><path class="cls-1" d="M35.218,2.7816A29.2184,29.2184,0,1,0,64.4367,32,29.2181,29.2181,0,0,0,35.218,2.7816ZM29.2388,41.5069a3.9181,3.9181,0,0,1-3.9177,3.9177h-.3778a3.9177,3.9177,0,0,1-3.9177-3.9177V20.281a3.9171,3.9171,0,0,1,3.9177-3.9171h.3778a3.9175,3.9175,0,0,1,3.9177,3.9171Zm9.9282,0a3.9181,3.9181,0,0,1-3.9177,3.9177h-.3778a3.9181,3.9181,0,0,1-3.9177-3.9177V20.281a3.9175,3.9175,0,0,1,3.9177-3.9171h.3778a3.9175,3.9175,0,0,1,3.9177,3.9171Zm10.9911,3.6292-.37.0774a3.9171,3.9171,0,0,1-4.634-3.0352L40.8213,21.3989a3.9171,3.9171,0,0,1,3.0352-4.634l.37-.0774a3.9171,3.9171,0,0,1,4.634,3.0352l4.3324,20.7794A3.9171,3.9171,0,0,1,50.1581,45.1361Z" transform="translate(-6 -2.7816)"></path><path class="cls-2" d="M50.1581,45.1361l-.37.0774a3.9171,3.9171,0,0,1-4.634-3.0352L40.8213,21.3989a3.9171,3.9171,0,0,1,3.0352-4.634l.37-.0774a3.9171,3.9171,0,0,1,4.634,3.0352l4.3324,20.7794A3.9171,3.9171,0,0,1,50.1581,45.1361Z" transform="translate(-6 -2.7816)"></path><path class="cls-3" d="M28.8714,13.5823h.3778A3.9177,3.9177,0,0,1,33.1669,17.5V38.7253a3.9177,3.9177,0,0,1-3.9177,3.9177h-.3785a3.9171,3.9171,0,0,1-3.9171-3.9171V17.5A3.9177,3.9177,0,0,1,28.8714,13.5823Z"></path><path class="cls-4" d="M18.9433,13.5823h.3778A3.9177,3.9177,0,0,1,23.2388,17.5V38.7253a3.9177,3.9177,0,0,1-3.9177,3.9177h-.3785a3.9171,3.9171,0,0,1-3.9171-3.9171V17.5A3.9177,3.9177,0,0,1,18.9433,13.5823Z"></path><path class="cls-1" d="M89.0394,39.1223a7.1613,7.1613,0,0,0,4.2224-.981,3.25,3.25,0,0,0,1.3219-2.7722,3.578,3.578,0,0,0-.4477-1.8338,4.6867,4.6867,0,0,0-1.2795-1.3861,10.7635,10.7635,0,0,0-2.0258-1.1516q-1.1945-.5326-2.7293-1.0448-1.5356-.5538-2.9642-1.2155a9.9606,9.9606,0,0,1-2.5164-1.642A7.5449,7.5449,0,0,1,80.8725,24.75a7.468,7.468,0,0,1-.661-3.2838,7.7034,7.7034,0,0,1,2.7722-6.2907,11.5276,11.5276,0,0,1,7.5484-2.2817,17.9051,17.9051,0,0,1,4.9262.6183,15.1218,15.1218,0,0,1,3.39,1.3436l-1.663,4.35a12.7652,12.7652,0,0,0-3.1774-1.2368,14.8282,14.8282,0,0,0-3.561-.4265,5.621,5.621,0,0,0-3.3906.8957,2.9445,2.9445,0,0,0-1.2157,2.5162,3.3189,3.3189,0,0,0,.4052,1.6847,4.1581,4.1581,0,0,0,1.1516,1.258A10.0761,10.0761,0,0,0,89.146,24.92q1.0021.47,2.1966.8957,2.0891.7678,3.7317,1.5566a10.5664,10.5664,0,0,1,2.7722,1.8767,7.3508,7.3508,0,0,1,1.7272,2.5589,9.4791,9.4791,0,0,1,.5972,3.561,7.3932,7.3932,0,0,1-2.8363,6.2055q-2.8369,2.1969-8.2952,2.1964a22.0253,22.0253,0,0,1-3.3477-.2345,21.5063,21.5063,0,0,1-2.6868-.5758,18.1763,18.1763,0,0,1-2.0258-.7037,12.2955,12.2955,0,0,1-1.3648-.6612l1.5781-4.3927a18.1888,18.1888,0,0,0,3.1133,1.2795A15.37,15.37,0,0,0,89.0394,39.1223Z" transform="translate(-6 -2.7816)"></path><path class="cls-1" d="M120.2882,20.8261a162.5673,162.5673,0,0,1-8.0033,23.03A23.1351,23.1351,0,0,1,110.534,47.14a9.7579,9.7579,0,0,1-2.0062,2.26,7.1547,7.1547,0,0,1-2.4764,1.3007,11.8689,11.8689,0,0,1-5.5289.1493,7.96,7.96,0,0,1-1.7717-.5546l.9379-4.1368a8.3927,8.3927,0,0,0,3.042.597,4.73,4.73,0,0,0,3.1487-.96,7.8618,7.8618,0,0,0,1.9925-2.9642q-2.4415-4.6908-4.6905-10.2356a112.3792,112.3792,0,0,1-4.0041-11.7708h5.5014q.4279,1.7911,1.0491,3.8808t1.3486,4.2436q.7278,2.1541,1.5406,4.2861t1.6272,3.9664q1.3588-3.7956,2.5477-8.082t2.1653-8.295Z" transform="translate(-6 -2.7816)"></path><path class="cls-1" d="M127.832,39.4207a6.7864,6.7864,0,0,0,2.9854-.49,1.7426,1.7426,0,0,0,.9384-1.6845,2.1862,2.1862,0,0,0-1.0021-1.834,14.7419,14.7419,0,0,0-3.3053-1.5779,26.1373,26.1373,0,0,1-2.5806-1.0877,8.7932,8.7932,0,0,1-2.0258-1.3434,5.5007,5.5007,0,0,1-1.3432-1.8553,6.4615,6.4615,0,0,1-.4906-2.6655,5.8142,5.8142,0,0,1,2.26-4.8406,9.7107,9.7107,0,0,1,6.1415-1.77,18.9265,18.9265,0,0,1,3.753.3626,18.3313,18.3313,0,0,1,2.6868.7037l-.9379,4.18a12.6791,12.6791,0,0,0-2.1753-.7039,13.1484,13.1484,0,0,0-3.0708-.32,5.3488,5.3488,0,0,0-2.5589.5331,1.75,1.75,0,0,0-.9808,1.642,2.3685,2.3685,0,0,0,.192.981,2.1022,2.1022,0,0,0,.661.7888,6.7236,6.7236,0,0,0,1.237.7251,18.9682,18.9682,0,0,0,1.8763.7463,28.7277,28.7277,0,0,1,3.1137,1.3434,8.4423,8.4423,0,0,1,2.1108,1.4927,5.11,5.11,0,0,1,1.2157,1.8979,7.5833,7.5833,0,0,1,.3836,2.5589,5.5116,5.5116,0,0,1-2.3669,4.8406,11.7878,11.7878,0,0,1-6.76,1.6418,18.527,18.527,0,0,1-4.7342-.49,24.34,24.34,0,0,1-2.516-.789l.8955-4.3073a23.0853,23.0853,0,0,0,2.7509.8955A14.1718,14.1718,0,0,0,127.832,39.4207Z" transform="translate(-6 -2.7816)"></path><path class="cls-1" d="M139.24,14.9405l5.1607-.853v6.7386h7.9325v4.3073h-7.9325v9.0843a6.5953,6.5953,0,0,0,.853,3.8384,3.3762,3.3762,0,0,0,2.9,1.1514,9.4379,9.4379,0,0,0,2.4948-.2984,16.7247,16.7247,0,0,0,1.7276-.5546l.853,4.0943a19.3453,19.3453,0,0,1-2.3457.789,12.7718,12.7718,0,0,1-3.4119.4052,10.7982,10.7982,0,0,1-3.9879-.64,5.879,5.879,0,0,1-2.5377-1.8553,7.35,7.35,0,0,1-1.3219-2.9427,18.2927,18.2927,0,0,1-.384-3.945Z" transform="translate(-6 -2.7816)"></path><path class="cls-1" d="M153.6764,32.0853a14.0116,14.0116,0,0,1,.8742-5.1605,10.8376,10.8376,0,0,1,2.3244-3.6891,9.619,9.619,0,0,1,3.3265-2.2178,10.3118,10.3118,0,0,1,3.8384-.7463,9.19,9.19,0,0,1,7.1865,2.8575q2.58,2.8578,2.58,8.53,0,.4267-.0212.96t-.0641.96H159.0075a5.88,5.88,0,0,0,1.8979,4.1582,7.2111,7.2111,0,0,0,4.8833,1.4712,16.0369,16.0369,0,0,0,3.4331-.3411,14.1233,14.1233,0,0,0,2.4523-.7251l.6822,4.2224a8.194,8.194,0,0,1-1.1728.4477,16.4978,16.4978,0,0,1-1.7059.4265q-.96.1918-2.0683.32a19.6928,19.6928,0,0,1-2.26.1279,13.6837,13.6837,0,0,1-5.1178-.8742,9.5185,9.5185,0,0,1-3.5826-2.431,9.9509,9.9509,0,0,1-2.09-3.6676A14.9663,14.9663,0,0,1,153.6764,32.0853Zm14.97-2.303a6.7937,6.7937,0,0,0-.2986-2.0258,4.9,4.9,0,0,0-.8742-1.6635,4.1409,4.1409,0,0,0-1.4077-1.1087,4.4891,4.4891,0,0,0-1.9829-.4052,4.6191,4.6191,0,0,0-2.09.4477A4.766,4.766,0,0,0,160.4789,26.2a5.37,5.37,0,0,0-.96,1.6635,8.97,8.97,0,0,0-.469,1.9192Z" transform="translate(-6 -2.7816)"></path><path class="cls-1" d="M189.6761,31.4029a10.8746,10.8746,0,0,0-.8742-5.0539,3.41,3.41,0,0,0-3.2628-1.5566,15.237,15.237,0,0,0-1.8763.1279q-1.0239.1281-1.5356.2132V43.1312h-5.16V21.551a34.51,34.51,0,0,1,3.9021-.81,32.3859,32.3859,0,0,1,5.0966-.3838,10.1526,10.1526,0,0,1,3.7746.597,7.3113,7.3113,0,0,1,2.4523,1.5781,9.9944,9.9944,0,0,1,1.1941-.7251,12.296,12.296,0,0,1,1.6206-.7037,14.8632,14.8632,0,0,1,1.8979-.5331,9.7117,9.7117,0,0,1,2.0258-.2132,10.644,10.644,0,0,1,4.2861.7463,6.2987,6.2987,0,0,1,2.6443,2.09,8.1268,8.1268,0,0,1,1.3219,3.2413,22.2491,22.2491,0,0,1,.3628,4.1582V43.1312h-5.1607V31.4029a11.1057,11.1057,0,0,0-.853-5.0539,3.4026,3.4026,0,0,0-3.284-1.5566,6.7858,6.7858,0,0,0-2.3457.4052,7.64,7.64,0,0,0-1.663.7888,11.4266,11.4266,0,0,1,.469,2.26,24.0571,24.0571,0,0,1,.1279,2.5589V43.1312h-5.16Z" transform="translate(-6 -2.7816)"></path></svg>